# This file uses centimeters as units for non-parametric coordinates.

mtllib WAREHOUSE.mtl
g default
v 2.829185 -0.005484 1.257972
v 2.791789 -0.005484 1.270123
v 2.791789 -0.005484 1.309443
v 2.829185 -0.005484 1.321594
v 2.852297 -0.005484 1.289783
v 2.829185 3.650937 1.257972
v 2.791789 3.650937 1.270123
v 2.791789 3.650937 1.309443
v 2.829185 3.650937 1.321594
v 2.852297 3.650937 1.289783
v -2.851792 -0.005484 1.276991
v 2.805625 -0.005484 1.276991
v -2.851792 3.431621 1.276991
v 2.805625 3.431621 1.276991
v -2.851792 2.556012 -1.312070
v 2.805625 2.556012 -1.312070
v -2.851792 -0.005484 -1.312070
v 2.805625 -0.005484 -1.312070
vt 0.992670 0.888031
vt 0.992670 0.909890
vt 0.992670 0.931750
vt 0.992670 0.953609
vt 0.992670 0.975469
vt 0.992670 0.997328
vt 0.005541 0.888031
vt 0.005541 0.909890
vt 0.005541 0.931750
vt 0.005541 0.953609
vt 0.005541 0.975469
vt 0.005541 0.997328
vt 0.003587 0.003468
vt 0.689293 0.003469
vt 0.689293 0.420062
vt 0.003587 0.420063
vt 0.705319 0.393873
vt 0.705319 0.005044
vt 0.988632 0.005044
vt 0.988632 0.393873
vt 0.695038 0.657967
vt 0.695038 0.004007
vt 0.991130 0.004007
vt 0.991130 0.657967
vt 0.709056 0.393750
vt 0.709055 0.006775
vt 0.985573 0.006776
vt 0.985574 0.393751
vt 0.348037 0.428621
vt 0.683682 0.428621
vt 0.683682 0.760692
vt 0.348037 0.874206
vt 0.003830 0.428621
vt 0.339475 0.428621
vt 0.339475 0.874206
vt 0.003830 0.760692
vn 0.309018 0.000000 -0.951056
vn -0.809016 0.000000 -0.587786
vn -0.809016 0.000000 -0.587786
vn 0.309018 0.000000 -0.951056
vn -0.809019 0.000000 0.587783
vn -0.809019 0.000000 0.587783
vn 0.309016 0.000000 0.951057
vn 0.309016 0.000000 0.951057
vn 1.000000 0.000000 -0.000003
vn 1.000000 0.000000 -0.000003
vn 0.000000 0.000000 1.000000
vn 0.000000 0.000000 1.000000
vn 0.000000 0.000000 1.000000
vn 0.000000 0.000000 1.000000
vn 0.000000 0.947292 -0.320370
vn 0.000000 0.947292 -0.320370
vn 0.000000 0.947292 -0.320370
vn 0.000000 0.947292 -0.320370
vn 0.000000 0.000000 -1.000000
vn 0.000000 0.000000 -1.000000
vn 0.000000 0.000000 -1.000000
vn 0.000000 0.000000 -1.000000
vn 0.000000 -1.000000 0.000000
vn 0.000000 -1.000000 0.000000
vn 0.000000 -1.000000 0.000000
vn 0.000000 -1.000000 0.000000
vn 1.000000 0.000000 0.000000
vn 1.000000 0.000000 0.000000
vn 1.000000 0.000000 0.000000
vn 1.000000 0.000000 0.000000
vn -1.000000 0.000000 0.000000
vn -1.000000 0.000000 0.000000
vn -1.000000 0.000000 0.000000
vn -1.000000 0.000000 0.000000
s 1
g polySurface9
usemtl lambert2SG
f 1/1/1 2/2/2 7/8/3 6/7/4
f 2/2/2 3/3/5 8/9/6 7/8/3
f 3/3/5 4/4/7 9/10/8 8/9/6
f 4/4/7 5/5/9 10/11/10 9/10/8
f 5/5/9 1/6/1 6/12/4 10/11/10
s off
f 11/13/11 12/14/12 14/15/13 13/16/14
f 13/17/15 14/18/16 16/19/17 15/20/18
f 15/21/19 16/22/20 18/23/21 17/24/22
f 17/25/23 18/26/24 12/27/25 11/28/26
f 12/29/27 18/30/28 16/31/29 14/32/30
f 17/33/31 11/34/32 13/35/33 15/36/34
